<svg width="0" height="0" class="hidden">
  <symbol fill="none" xmlns="http://www.w3.org/2000/svg" viewBox="0 0 20 20" id="Calendar">
    <path d="M17.4754 2.0669H16.1634V1.74585C16.1634 1.42226 15.9011 1.15991 15.5775 1.15991C15.2539 1.15991 14.9916 1.42226 14.9916 1.74585V2.0669H13.3747V1.74585C13.3747 1.42226 13.1123 1.15991 12.7887 1.15991C12.4652 1.15991 12.2028 1.42226 12.2028 1.74585V2.0669H10.5859V1.74585C10.5859 1.42226 10.3236 1.15991 10 1.15991C9.67641 1.15991 9.41406 1.42226 9.41406 1.74585V2.0669H7.79719V1.74585C7.79719 1.42226 7.53484 1.15991 7.21125 1.15991C6.88766 1.15991 6.62531 1.42226 6.62531 1.74585V2.0669H5.00844V1.74585C5.00844 1.42226 4.74609 1.15991 4.4225 1.15991C4.09891 1.15991 3.83656 1.42226 3.83656 1.74585V2.0669H2.52461C1.13254 2.0669 0 3.19944 0 4.59147V16.3155C0 17.7076 1.13254 18.8401 2.52461 18.8401H17.4754C18.8675 18.8401 20 17.7075 20 16.3155V4.59147C20 3.19944 18.8675 2.0669 17.4754 2.0669ZM18.8281 16.3155C18.8281 17.0614 18.2213 17.6682 17.4754 17.6682H2.52461C1.77871 17.6682 1.17188 17.0614 1.17188 16.3155V6.73233H18.8281V16.3155ZM18.8281 5.56046H1.17188V4.59147C1.17188 3.84562 1.77871 3.23878 2.52461 3.23878H3.83656V3.4653C3.83656 3.7889 4.09891 4.05124 4.4225 4.05124C4.74609 4.05124 5.00844 3.7889 5.00844 3.4653V3.23878H6.62531V3.4653C6.62531 3.7889 6.88766 4.05124 7.21125 4.05124C7.53484 4.05124 7.79719 3.7889 7.79719 3.4653V3.23878H9.41406V3.4653C9.41406 3.7889 9.67641 4.05124 10 4.05124C10.3236 4.05124 10.5859 3.7889 10.5859 3.4653V3.23878H12.2028V3.4653C12.2028 3.7889 12.4652 4.05124 12.7887 4.05124C13.1123 4.05124 13.3747 3.7889 13.3747 3.4653V3.23878H14.9916V3.4653C14.9916 3.7889 15.2539 4.05124 15.5775 4.05124C15.9011 4.05124 16.1634 3.7889 16.1634 3.4653V3.23878H17.4754C18.2213 3.23878 18.8281 3.84562 18.8281 4.59147V5.56046Z" fill="#52555F"></path>
    <path d="M6.5318 7.98169H4.21973C3.89613 7.98169 3.63379 8.24403 3.63379 8.56762V10.9598C3.63379 11.2834 3.89613 11.5457 4.21973 11.5457H6.5318C6.85539 11.5457 7.11773 11.2834 7.11773 10.9598V8.56762C7.11773 8.24403 6.85543 7.98169 6.5318 7.98169ZM5.94586 10.3738H4.80566V9.15356H5.94586V10.3738Z" fill="#52555F"></path>
    <path d="M11.1561 7.98169H8.84399C8.5204 7.98169 8.25806 8.24403 8.25806 8.56762V10.9598C8.25806 11.2834 8.5204 11.5457 8.84399 11.5457H11.1561C11.4797 11.5457 11.742 11.2834 11.742 10.9598V8.56762C11.742 8.24403 11.4797 7.98169 11.1561 7.98169ZM10.5701 10.3738H9.42993V9.15356H10.5701V10.3738Z" fill="#52555F"></path>
    <path d="M15.7802 7.98169H13.4681C13.1445 7.98169 12.8822 8.24403 12.8822 8.56762V10.9598C12.8822 11.2834 13.1445 11.5457 13.4681 11.5457H15.7802C16.1038 11.5457 16.3661 11.2834 16.3661 10.9598V8.56762C16.3661 8.24403 16.1038 7.98169 15.7802 7.98169ZM15.1943 10.3738H14.0541V9.15356H15.1943V10.3738Z" fill="#52555F"></path>
    <path d="M6.5318 12.5256H4.21973C3.89613 12.5256 3.63379 12.788 3.63379 13.1116V15.5037C3.63379 15.8273 3.89613 16.0897 4.21973 16.0897H6.5318C6.85539 16.0897 7.11773 15.8273 7.11773 15.5037V13.1116C7.11773 12.788 6.85543 12.5256 6.5318 12.5256ZM5.94586 14.9178H4.80566V13.6975H5.94586V14.9178Z" fill="#52555F"></path>
    <path d="M11.1561 12.5256H8.84399C8.5204 12.5256 8.25806 12.788 8.25806 13.1116V15.5037C8.25806 15.8273 8.5204 16.0897 8.84399 16.0897H11.1561C11.4797 16.0897 11.742 15.8273 11.742 15.5037V13.1116C11.742 12.788 11.4797 12.5256 11.1561 12.5256ZM10.5701 14.9178H9.42993V13.6975H10.5701V14.9178Z" fill="#52555F"></path>
    <path d="M15.7802 12.5256H13.4681C13.1445 12.5256 12.8822 12.788 12.8822 13.1116V15.5037C12.8822 15.8273 13.1445 16.0897 13.4681 16.0897H15.7802C16.1038 16.0897 16.3661 15.8273 16.3661 15.5037V13.1116C16.3661 12.788 16.1038 12.5256 15.7802 12.5256ZM15.1943 14.9178H14.0541V13.6975H15.1943V14.9178Z" fill="#52555F"></path>
  </symbol>
  <symbol fill="none" xmlns="http://www.w3.org/2000/svg" viewBox="0 0 18 18" id="Delete">
    <g clip-path="url(#clip0_15_347)">
      <path d="M16.3081 4.02333L15.9107 2.832C15.7594 2.37827 15.3362 2.07339 14.8581 2.07339H11.5178V0.985886C11.5178 0.442337 11.0759 0 10.5325 0H7.47361C6.93033 0 6.48827 0.442337 6.48827 0.985886V2.07339H3.14815C2.66983 2.07339 2.24672 2.37827 2.09539 2.832L1.69796 4.02333C1.60746 4.29456 1.65332 4.59489 1.82045 4.82684C1.98758 5.05879 2.25798 5.19736 2.5439 5.19736H2.95932L3.87366 16.5038C3.94164 17.3427 4.65355 18 5.49469 18H12.6969C13.5379 18 14.25 17.3427 14.3178 16.5037L15.2322 5.19736H15.4622C15.7481 5.19736 16.0185 5.05879 16.1856 4.82698C16.3528 4.59503 16.3986 4.29456 16.3081 4.02333ZM7.54296 1.05469H10.4631V2.07339H7.54296V1.05469ZM13.2666 16.4187C13.2427 16.7141 12.9925 16.9453 12.6969 16.9453H5.49469C5.19916 16.9453 4.94895 16.7141 4.92505 16.4187L4.01744 5.19736H14.174L13.2666 16.4187ZM2.77008 4.14267L3.09597 3.16571C3.10338 3.14319 3.12439 3.12808 3.14815 3.12808H14.8581C14.8818 3.12808 14.9027 3.14319 14.9103 3.16571L15.2361 4.14267H2.77008Z" fill="#52555F"></path>
      <path d="M11.5846 16.3813C11.594 16.3819 11.6032 16.382 11.6125 16.382C11.8912 16.382 12.1241 16.1637 12.1386 15.8821L12.6338 6.37593C12.6489 6.08507 12.4254 5.83691 12.1346 5.82181C11.8431 5.80629 11.5958 6.03013 11.5805 6.321L11.0854 15.8272C11.0703 16.1181 11.2938 16.3662 11.5846 16.3813Z" fill="#52555F"></path>
      <path d="M5.89092 15.8833C5.90631 16.1644 6.13894 16.3819 6.41703 16.3819C6.42664 16.3819 6.43653 16.3816 6.44628 16.3811C6.73701 16.3653 6.95989 16.1167 6.9441 15.8259L6.42541 6.31967C6.40961 6.0288 6.16105 5.80592 5.87019 5.82185C5.57946 5.83764 5.35658 6.08621 5.37237 6.37707L5.89092 15.8833Z" fill="#52555F"></path>
      <path d="M9.00879 16.3819C9.30006 16.3819 9.53613 16.1459 9.53613 15.8546V6.34839C9.53613 6.05711 9.30006 5.82104 9.00879 5.82104C8.71751 5.82104 8.48145 6.05711 8.48145 6.34839V15.8546C8.48145 16.1459 8.71751 16.3819 9.00879 16.3819Z" fill="#52555F"></path>
    </g>
    <defs>
      <clipPath id="clip0_15_347">
        <rect width="18" height="18" fill="white"></rect>
      </clipPath>
    </defs>
  </symbol>
  <symbol fill="none" xmlns="http://www.w3.org/2000/svg" viewBox="0 0 20 20" id="calculator">
    <path d="M17.0312 0H2.96875C1.99949 0 1.21094 0.788555 1.21094 1.75781V18.2422C1.21094 19.2114 1.99949 20 2.96875 20H17.0312C18.0005 20 18.7891 19.2114 18.7891 18.2422V1.75781C18.7891 0.788555 18.0005 0 17.0312 0ZM17.6172 18.2422C17.6172 18.5653 17.3543 18.8281 17.0312 18.8281H2.96875C2.64566 18.8281 2.38281 18.5653 2.38281 18.2422V1.75781C2.38281 1.43473 2.64566 1.17188 2.96875 1.17188H17.0312C17.3543 1.17188 17.6172 1.43473 17.6172 1.75781V18.2422Z" fill="#1D2E4A"></path>
    <path d="M15.8594 2.34375H4.14062C3.81703 2.34375 3.55469 2.60609 3.55469 2.92969V7.69531C3.55469 8.01891 3.81703 8.28125 4.14062 8.28125H15.8594C16.183 8.28125 16.4453 8.01891 16.4453 7.69531V2.92969C16.4453 2.60609 16.183 2.34375 15.8594 2.34375ZM15.2734 7.10938H4.72656V3.51562H15.2734V7.10938Z" fill="#1D2E4A"></path>
    <path d="M6.48438 9.45312H4.14062C3.81703 9.45312 3.55469 9.71547 3.55469 10.0391V12.3828C3.55469 12.7064 3.81703 12.9688 4.14062 12.9688H6.48438C6.80797 12.9688 7.07031 12.7064 7.07031 12.3828V10.0391C7.07031 9.71547 6.80797 9.45312 6.48438 9.45312ZM5.89844 11.7969H4.72656V10.625H5.89844V11.7969Z" fill="#1D2E4A"></path>
    <path d="M6.48438 14.1406H4.14062C3.81703 14.1406 3.55469 14.403 3.55469 14.7266V17.0703C3.55469 17.3939 3.81703 17.6562 4.14062 17.6562H6.48438C6.80797 17.6562 7.07031 17.3939 7.07031 17.0703V14.7266C7.07031 14.403 6.80797 14.1406 6.48438 14.1406ZM5.89844 16.4844H4.72656V15.3125H5.89844V16.4844Z" fill="#1D2E4A"></path>
    <path d="M11.1719 9.45312H8.82812C8.50453 9.45312 8.24219 9.71547 8.24219 10.0391V12.3828C8.24219 12.7064 8.50453 12.9688 8.82812 12.9688H11.1719C11.4955 12.9688 11.7578 12.7064 11.7578 12.3828V10.0391C11.7578 9.71547 11.4955 9.45312 11.1719 9.45312ZM10.5859 11.7969H9.41406V10.625H10.5859V11.7969Z" fill="#1D2E4A"></path>
    <path d="M11.1719 14.1406H8.82812C8.50453 14.1406 8.24219 14.403 8.24219 14.7266V17.0703C8.24219 17.3939 8.50453 17.6562 8.82812 17.6562H11.1719C11.4955 17.6562 11.7578 17.3939 11.7578 17.0703V14.7266C11.7578 14.403 11.4955 14.1406 11.1719 14.1406ZM10.5859 16.4844H9.41406V15.3125H10.5859V16.4844Z" fill="#1D2E4A"></path>
    <path d="M15.8594 9.45312H13.5156C13.192 9.45312 12.9297 9.71547 12.9297 10.0391V17.0703C12.9297 17.3939 13.192 17.6562 13.5156 17.6562H15.8594C16.183 17.6562 16.4453 17.3939 16.4453 17.0703V10.0391C16.4453 9.71547 16.183 9.45312 15.8594 9.45312ZM15.2734 16.4844H14.1016V10.625H15.2734V16.4844Z" fill="#1D2E4A"></path>
  </symbol>
   <symbol fill="none" xmlns="http://www.w3.org/2000/svg" viewBox="0 0 14 14" id="ReportBtnIcon">
    <path d="M0 4.2h3V14H0V4.2ZM5.6 0h2.8v14H5.6V0Zm5.6 8H14v6h-2.8V8Z" fill="#52555F"></path>
  </symbol>
    <symbol fill="none" xmlns="http://www.w3.org/2000/svg" viewBox="0 0 14 14" id="Report">
    <path d="M0 4.2H3V14H0V4.2ZM5.6 0H8.4V14H5.6V0ZM11.2 8H14V14H11.2V8Z" fill="#52555F"></path>
  </symbol>
</svg>