<svg aria-hidden="true" style="position: absolute; width: 0; height: 0; overflow: hidden;" version="1.1" xmlns="http://www.w3.org/2000/svg" xmlns:xlink="http://www.w3.org/1999/xlink">
<defs>
<symbol id="icon-title" viewBox="0 0 101 32">
<path d="M8.035 18.135l-1.912 2.098v5.1h-4.662v-19.337h4.662v8.527l1.62-2.457 4.17-6.070h5.764l-6.534 8.553 6.534 10.784h-5.525l-4.117-7.198zM26.749 25.333c-0.159-0.292-0.301-0.722-0.425-1.288-0.823 1.036-1.974 1.554-3.453 1.554-1.355 0-2.506-0.407-3.453-1.222-0.947-0.823-1.421-1.855-1.421-3.095 0-1.558 0.576-2.736 1.727-3.533s2.824-1.195 5.020-1.195h1.381v-0.757c0-1.319-0.571-1.979-1.713-1.979-1.063 0-1.594 0.522-1.594 1.567h-4.476c0-1.39 0.589-2.519 1.766-3.387 1.186-0.868 2.696-1.302 4.529-1.302s3.28 0.447 4.343 1.341c1.062 0.894 1.607 2.121 1.634 3.679v6.362c0.018 1.319 0.221 2.329 0.611 3.028v0.226h-4.476zM23.946 22.411c0.558 0 1.018-0.12 1.381-0.359 0.372-0.239 0.638-0.509 0.797-0.81v-2.298h-1.302c-1.558 0-2.338 0.7-2.338 2.098 0 0.407 0.137 0.739 0.412 0.996 0.274 0.248 0.624 0.372 1.049 0.372zM46.445 18.254c0 2.231-0.505 4.015-1.514 5.352-1.001 1.328-2.355 1.992-4.064 1.992-1.319 0-2.404-0.483-3.254-1.448v6.707h-4.476v-19.895h4.183l0.133 1.328c0.859-1.063 1.988-1.594 3.387-1.594 1.771 0 3.148 0.655 4.131 1.966 0.983 1.302 1.474 3.095 1.474 5.379v0.212zM41.969 17.976c0-2.55-0.744-3.825-2.231-3.825-1.063 0-1.771 0.381-2.125 1.142v5.658c0.39 0.797 1.107 1.195 2.151 1.195 1.426 0 2.161-1.231 2.205-3.692v-0.478zM56.99 23.779c-0.947 1.213-2.227 1.82-3.838 1.82-1.576 0-2.771-0.456-3.586-1.368-0.806-0.921-1.209-2.24-1.209-3.958v-9.31h4.476v9.337c0 1.231 0.598 1.846 1.793 1.846 1.027 0 1.758-0.367 2.191-1.102v-10.080h4.502v14.37h-4.197l-0.133-1.554zM71.307 21.296c0-0.381-0.199-0.686-0.598-0.916s-1.155-0.469-2.271-0.717c-1.116-0.248-2.037-0.571-2.763-0.97-0.726-0.407-1.279-0.899-1.66-1.474s-0.571-1.235-0.571-1.979c0-1.319 0.545-2.404 1.634-3.254 1.089-0.859 2.515-1.288 4.277-1.288 1.895 0 3.418 0.429 4.569 1.288s1.727 1.988 1.727 3.387h-4.489c0-1.151-0.607-1.727-1.82-1.727-0.469 0-0.863 0.133-1.182 0.398-0.319 0.257-0.478 0.58-0.478 0.97 0 0.398 0.195 0.722 0.584 0.97s1.009 0.452 1.859 0.611c0.859 0.159 1.611 0.35 2.258 0.571 2.16 0.744 3.241 2.076 3.241 3.998 0 1.31-0.585 2.377-1.753 3.201-1.16 0.823-2.665 1.235-4.516 1.235-1.231 0-2.329-0.221-3.294-0.664s-1.718-1.045-2.258-1.806c-0.54-0.761-0.81-1.563-0.81-2.404h4.183c0.018 0.664 0.239 1.151 0.664 1.461 0.425 0.301 0.97 0.452 1.634 0.452 0.611 0 1.067-0.124 1.368-0.372 0.31-0.248 0.465-0.571 0.465-0.97zM82.941 7.39v3.573h2.364v3.108h-2.364v6.574c0 0.54 0.098 0.916 0.292 1.129s0.58 0.319 1.155 0.319c0.443 0 0.815-0.027 1.116-0.080v3.201c-0.806 0.257-1.647 0.385-2.523 0.385-1.541 0-2.678-0.363-3.413-1.089s-1.102-1.828-1.102-3.307v-7.132h-1.833v-3.108h1.833v-3.573h4.476zM95.173 25.333c-0.159-0.292-0.301-0.722-0.425-1.288-0.823 1.036-1.975 1.554-3.453 1.554-1.355 0-2.506-0.407-3.453-1.222-0.947-0.823-1.421-1.855-1.421-3.095 0-1.558 0.575-2.736 1.727-3.533s2.825-1.195 5.020-1.195h1.381v-0.757c0-1.319-0.571-1.979-1.713-1.979-1.063 0-1.594 0.522-1.594 1.567h-4.476c0-1.39 0.589-2.519 1.766-3.387 1.186-0.868 2.696-1.302 4.529-1.302s3.281 0.447 4.343 1.341c1.062 0.894 1.607 2.121 1.634 3.679v6.362c0.018 1.319 0.221 2.329 0.611 3.028v0.226h-4.476zM92.371 22.411c0.558 0 1.018-0.12 1.381-0.359 0.372-0.239 0.638-0.509 0.797-0.81v-2.298h-1.302c-1.558 0-2.338 0.7-2.338 2.098 0 0.407 0.137 0.739 0.412 0.996 0.274 0.248 0.624 0.372 1.049 0.372z"></path>
<path d="M68.533 7.467h2.133v3.467h-2.133v-3.467z"></path>
<path d="M68.533 25.333h2.133v3.467h-2.133v-3.467z"></path>
</symbol>
<symbol id="icon-mobile-title" viewBox="0 0 125 32">
<path d="M5.915 18.067l2.427-2.663 5.225 9.134h7.011l-8.292-13.685 8.292-10.853h-7.314l-5.292 7.702-2.056 3.118v-10.82h-5.915v24.538h5.915v-6.472zM31.549 22.904c0.157 0.719 0.337 1.264 0.539 1.635h5.68v-0.287c-0.494-0.888-0.753-2.168-0.775-3.843v-8.073c-0.034-1.977-0.725-3.534-2.073-4.668s-3.185-1.702-5.511-1.702c-2.326 0-4.241 0.551-5.747 1.652-1.494 1.101-2.241 2.534-2.241 4.298h5.68c0-1.326 0.674-1.989 2.022-1.989 1.449 0 2.174 0.837 2.174 2.511v0.961h-1.753c-2.786 0-4.91 0.506-6.371 1.517s-2.191 2.506-2.191 4.483c0 1.573 0.601 2.882 1.803 3.927 1.202 1.034 2.663 1.55 4.382 1.55 1.876 0 3.337-0.657 4.382-1.972zM30.285 20.376c-0.461 0.303-1.045 0.455-1.753 0.455-0.539 0-0.983-0.157-1.331-0.472-0.348-0.326-0.523-0.747-0.523-1.264 0-1.775 0.989-2.663 2.966-2.663h1.652v2.916c-0.202 0.382-0.539 0.725-1.011 1.028zM57.082 15.556c0 2.831-0.64 5.095-1.921 6.792-1.27 1.685-2.989 2.528-5.157 2.528-1.674 0-3.050-0.612-4.129-1.837v8.511h-5.68v-25.246h5.309l0.169 1.685c1.090-1.348 2.522-2.022 4.298-2.022 2.247 0 3.994 0.831 5.241 2.494 1.247 1.652 1.871 3.927 1.871 6.826v0.27zM51.402 15.202c0-3.236-0.944-4.854-2.831-4.854-1.348 0-2.247 0.483-2.697 1.449v7.179c0.494 1.011 1.404 1.517 2.73 1.517 1.809 0 2.741-1.562 2.798-4.685v-0.607zM65.593 24.875c2.045 0 3.668-0.77 4.871-2.309l0.168 1.972h5.326v-18.235h-5.713v12.792c-0.55 0.933-1.477 1.399-2.781 1.399-1.517 0-2.275-0.781-2.275-2.343v-11.848h-5.68v11.814c0 2.18 0.511 3.854 1.534 5.022 1.034 1.157 2.55 1.736 4.55 1.736zM88.631 19.415c0-0.483-0.253-0.871-0.758-1.163s-1.467-0.596-2.882-0.91c-1.415-0.315-2.584-0.725-3.506-1.23-0.921-0.517-1.623-1.14-2.107-1.871s-0.724-1.567-0.724-2.511c0-1.674 0.691-3.050 2.073-4.129 1.16-0.915 2.622-1.446 4.384-1.593v-4.142h2.707v4.196c1.648 0.2 3.026 0.713 4.133 1.539 1.46 1.090 2.191 2.522 2.191 4.298h-5.696c0-1.461-0.77-2.191-2.309-2.191-0.595 0-1.096 0.168-1.5 0.506-0.404 0.326-0.607 0.736-0.607 1.23 0 0.506 0.247 0.916 0.741 1.23s1.281 0.573 2.36 0.775c1.089 0.202 2.045 0.444 2.865 0.725 2.741 0.944 4.112 2.635 4.112 5.073 0 1.663-0.742 3.017-2.225 4.062-1.107 0.786-2.462 1.276-4.065 1.471v4.158h-2.707v-4.106c-1.146-0.099-2.192-0.365-3.137-0.799-1.224-0.562-2.179-1.326-2.865-2.292s-1.028-1.983-1.028-3.050h5.309c0.022 0.843 0.303 1.461 0.842 1.854 0.539 0.382 1.23 0.573 2.073 0.573 0.775 0 1.354-0.157 1.736-0.472 0.394-0.315 0.59-0.725 0.59-1.23zM103.395 6.303v-4.534h-5.68v4.534h-2.326v3.944h2.326v9.050c0 1.876 0.466 3.275 1.398 4.196s2.376 1.382 4.332 1.382c1.112 0 2.179-0.163 3.202-0.489v-4.062c-0.382 0.067-0.854 0.101-1.415 0.101-0.731 0-1.219-0.135-1.467-0.404s-0.37-0.747-0.37-1.433v-8.342h3v-3.944h-3zM118.916 24.538c-0.202-0.371-0.382-0.916-0.539-1.635-1.045 1.315-2.506 1.972-4.382 1.972-1.719 0-3.18-0.517-4.382-1.55-1.202-1.045-1.803-2.354-1.803-3.927 0-1.977 0.731-3.472 2.191-4.483s3.584-1.517 6.37-1.517h1.753v-0.961c0-1.674-0.725-2.511-2.174-2.511-1.349 0-2.023 0.663-2.023 1.989h-5.68c0-1.764 0.748-3.197 2.242-4.298 1.505-1.101 3.421-1.652 5.746-1.652s4.163 0.567 5.511 1.702c1.348 1.135 2.039 2.691 2.073 4.668v8.073c0.022 1.674 0.281 2.955 0.775 3.843v0.287h-5.68zM115.36 20.831c0.708 0 1.292-0.152 1.753-0.455 0.472-0.303 0.809-0.646 1.011-1.028v-2.916h-1.652c-1.977 0-2.966 0.888-2.966 2.663 0 0.517 0.174 0.938 0.523 1.264 0.348 0.315 0.792 0.472 1.331 0.472z"></path>
</symbol>
<symbol id="icon-tablet-title" viewBox="0 0 126 32">
<path d="M5.97 18.234l2.449-2.688 5.273 9.219h7.076l-8.369-13.812 8.369-10.954h-7.382l-5.341 7.773-2.075 3.147v-10.92h-5.97v24.766h5.97v-6.532zM31.842 23.116c0.159 0.726 0.34 1.276 0.544 1.65h5.732v-0.289c-0.499-0.896-0.76-2.189-0.782-3.878v-8.148c-0.034-1.996-0.731-3.566-2.092-4.712s-3.215-1.718-5.562-1.718c-2.347 0-4.281 0.556-5.8 1.667-1.508 1.111-2.262 2.557-2.262 4.337h5.732c0-1.338 0.68-2.007 2.041-2.007 1.463 0 2.194 0.845 2.194 2.534v0.97h-1.769c-2.812 0-4.956 0.51-6.43 1.531s-2.211 2.529-2.211 4.525c0 1.588 0.607 2.909 1.82 3.963 1.213 1.043 2.688 1.565 4.423 1.565 1.894 0 3.368-0.663 4.423-1.99zM30.566 20.565c-0.465 0.306-1.055 0.459-1.769 0.459-0.544 0-0.992-0.159-1.344-0.476-0.352-0.329-0.527-0.754-0.527-1.276 0-1.792 0.998-2.688 2.994-2.688h1.667v2.943c-0.204 0.386-0.544 0.731-1.021 1.038zM57.612 15.7c0 2.858-0.647 5.143-1.939 6.855-1.281 1.701-3.016 2.551-5.205 2.551-1.69 0-3.079-0.618-4.167-1.854v8.59h-5.732v-25.48h5.358l0.17 1.701c1.1-1.361 2.546-2.041 4.338-2.041 2.268 0 4.031 0.839 5.29 2.517 1.259 1.667 1.888 3.963 1.888 6.889v0.272zM51.879 15.343c0-3.266-0.953-4.899-2.857-4.899-1.361 0-2.268 0.488-2.722 1.463v7.246c0.499 1.021 1.417 1.531 2.756 1.531 1.826 0 2.767-1.576 2.823-4.729v-0.612zM66.201 25.106c2.064 0 3.703-0.777 4.916-2.33l0.17 1.99h5.375v-18.404h-5.766v12.91c-0.556 0.941-1.491 1.412-2.807 1.412-1.531 0-2.297-0.788-2.297-2.364v-11.958h-5.732v11.924c0 2.2 0.516 3.89 1.548 5.069 1.043 1.168 2.574 1.752 4.592 1.752zM89.454 19.595c0-0.488-0.255-0.879-0.766-1.174s-1.48-0.601-2.909-0.919c-1.429-0.317-2.608-0.731-3.538-1.242-0.93-0.522-1.639-1.151-2.126-1.888s-0.731-1.582-0.731-2.534c0-1.69 0.697-3.079 2.092-4.167 1.171-0.924 2.647-1.46 4.425-1.608v-4.18h2.732v4.235c1.664 0.202 3.054 0.72 4.171 1.553 1.474 1.1 2.211 2.546 2.211 4.337h-5.749c0-1.474-0.777-2.211-2.331-2.211-0.601 0-1.106 0.17-1.514 0.51-0.408 0.329-0.612 0.743-0.612 1.242 0 0.51 0.249 0.924 0.748 1.242s1.293 0.578 2.382 0.782c1.1 0.204 2.064 0.448 2.891 0.731 2.767 0.953 4.15 2.659 4.15 5.12 0 1.678-0.748 3.045-2.245 4.099-1.118 0.793-2.485 1.288-4.103 1.485v4.197h-2.732v-4.144c-1.157-0.1-2.213-0.369-3.166-0.806-1.236-0.567-2.2-1.338-2.892-2.313s-1.038-2.001-1.038-3.079h5.358c0.023 0.85 0.306 1.474 0.85 1.871 0.544 0.386 1.242 0.578 2.092 0.578 0.782 0 1.367-0.159 1.752-0.476 0.397-0.318 0.596-0.731 0.596-1.242zM104.354 6.362v-4.576h-5.732v4.576h-2.347v3.98h2.347v9.134c0 1.894 0.471 3.306 1.412 4.235s2.398 1.395 4.372 1.395c1.122 0 2.2-0.164 3.232-0.493v-4.099c-0.385 0.068-0.862 0.102-1.428 0.102-0.737 0-1.23-0.136-1.48-0.408s-0.375-0.754-0.375-1.446v-8.42h3.028v-3.98h-3.028zM120.020 24.766c-0.204-0.374-0.386-0.924-0.544-1.65-1.054 1.327-2.529 1.99-4.423 1.99-1.735 0-3.209-0.522-4.422-1.565-1.214-1.055-1.82-2.376-1.82-3.963 0-1.996 0.737-3.504 2.211-4.525s3.618-1.531 6.43-1.531h1.769v-0.97c0-1.69-0.731-2.534-2.194-2.534-1.361 0-2.041 0.669-2.041 2.007h-5.733c0-1.78 0.754-3.226 2.263-4.337 1.519-1.111 3.453-1.667 5.8-1.667s4.201 0.573 5.562 1.718c1.36 1.145 2.058 2.716 2.092 4.712v8.148c0.023 1.69 0.284 2.982 0.782 3.878v0.289h-5.732zM116.431 21.024c0.714 0 1.304-0.153 1.769-0.459 0.476-0.306 0.816-0.652 1.020-1.038v-2.943h-1.667c-1.996 0-2.994 0.896-2.994 2.688 0 0.522 0.176 0.947 0.527 1.276 0.352 0.318 0.8 0.476 1.344 0.476z"></path>
</symbol>
</defs>
</svg>
